# xmcd
#
# Track frame offsets: 
#        182
#        16872
#        30187
#        49170
#        62547
#        81545
#        92570
#        109110
#        124355
#        138267
#        155655
#        179880
#        201502
#        222160
#        243275
#
# Disc length: 3422 seconds
#
# Revision: 1
# Processed by: cddbd v1.5.2PL0 Copyright (c) Steve Scherf et al.
# Submitted via: ExactAudioCopy v0.95b4
#
DISCID=d30d5c0f
DTITLE=Various Artist - Louisiana Swamp Blues Vol. 1 - Live At Tabby's Blues 
DTITLE=Box
DYEAR=1994
DGENRE=Blues
TTITLE0=Tammy Thomas - Lord Oh Lord
TTITLE1=Silas Hogan - Free Hearted Man
TTITLE2=Silas Hogan - Let Me Be Your Hatchet
TTITLE3=Tammy Thomas - So Close Together
TTITLE4=Tammy Thomas - Long Distance Call
TTITLE5=Oscar 'Harp' Davis - Baby What You want Me To Do
TTITLE6=Oscar 'Harp' Davis - Caress Me Baby
TTITLE7=Oscar 'Harp' Davis - Ain't Gonna Be Your Fool
TTITLE8=Oscar 'Harp' Davis - Rainin' In My Heart
TTITLE9=Arthur 'Guitar' Kelly - Diggin' My Potatoes
TTITLE10=Chris Thomas - Time Love
TTITLE11=Henry Gray - It Hurts Me Too
TTITLE12=W.W. Woodfolk - The Stars Are Crying
TTITLE13=Clarence Edwards - Lonesome Bedroom Blues
TTITLE14=Clarence Edwards - I'm The One
EXTD=
EXTT0=
EXTT1=
EXTT2=
EXTT3=
EXTT4=
EXTT5=
EXTT6=
EXTT7=
EXTT8=
EXTT9=
EXTT10=
EXTT11=
EXTT12=
EXTT13=
EXTT14=
PLAYORDER=
